<svg xmlns="http://www.w3.org/2000/svg" viewBox="0 0 977.565 922.161"><path d="M405.001.508c-46.235 6.586-94.765 12.387-134.199 38.824-28.827-.031-59.432 37.733-74.453 52.855-42.08 8.51-82.809 24.042-124.2 35.7-21.28 12.095-72.444 4.904-53.445 40.082 4.644 27.074 7.246 54.472 11.207 81.617-2.803 29.436-33.536 47.643-28.945 79.66 12.094 15.361 40.342 25.509 41.371 44.473-18.119 31.876 26.901 61.443.45 91.738-14.995 21.763 17.032 47.713 9.472 74.293 37.04 10.55 16.076 53.81 7.57 78.539-21.482 30.225 26.31 19.185 44.57 27.992 3.724-21.554 8.674 17.105 26.516 10.817 23.093 3.703 42.416 19.933 61.914 28.722 7.108.892-21.337 14.348-.129 19.512 30.29 12.003 31.275 66.078 67.614 60.336 17.43-11.253 47.517-25.598 57.238-24.082 19.059 10.167 32.821 46.813 55.102 45.176.422.142 1.099.07 2.09-.262l.23-.043c1.42-.398 2.791-1.07 4.09-1.957 1.38-.745 3.001-1.683 4.89-2.836 41.498 6.366 50.982 49.407 75.817 75.808-.982 35.582 60.933 4.947 63.719-1.21 21.809 15.95-1.427 55.877 38.261 43.222 26.66 9.662 40.314 3.422 51.352-23.41 34.036-6.504 60.786 29.498 87.457-9.137 42.334-13.997 63.916 27.127 101.164 35.692 29.345 5.23 90.416 45.4 75.621-9.703-18.743-37.429-24.243-82.75 13.84-114.438 23.023-34.064 50.797-67.508 81.726-88.742 7.582-27.395 1.092-58.451 4.122-77.992-28.506-29.309-36.842-65.915-51.047-101.16-8.666-32.642 22.08-81.494-21.899-99.114-46.536-30.688 67.422-43.36 43.098-87.375.087-46.28-20.09-87.977-36.371-129.965-11.963-36.737-6.315-87.594-49.836-103.89-34.912-37.036-82.04-3.917-125.89-8.23-66.804 4.956-132.998-7.838-198.95-14.876-28.549 13.82-78.25 32.047-61.262-19.582C470.27 23.937 428.013 5.501 405.001.508Zm-21.664 48.808c34.04-.462 13.37 76.51 63.07 75.106 46.212 21.145 88.053-22.29 133.586-6.035 31.738 7.02 65.5 4.693 97.18 10.824-11.116 5.514-23.127 10.028-34.074 15.375-32.87 16.062-70.33 30.72-102.59 47.312l33.566 15.032-.019 82.011 16.043-.015c-.18-25.052-.161-50.105.039-75.157l32.938 14.551.03 60.934c50.08-25.748 135.39-31.441 183.81-.004-.33-17.371-.38-34.75-.13-52.121-22.87-23.625-52.999-30.782-84.789-32.563l-4.988-10.176c37-1.844 71.728 6.193 102.188 27.86 15.152-6.934 30.524-13.4 45.625-20.258l1.722.695c6.19 40.976 57.04 100.545 21.297 132.598-27.357 17.783-64.409 72.648-45.355 97.437 37.951 8.288 45.897 32.989 34.422 67.125 9.544 43.668 18.81 81.836 46.714 118.887-12.808 14.792 30.54 50.612-9.968 55.778-38.788 44.712-70.17 95.264-105.075 142.984 11.721 25.463 11.524 60.766-14.726 26.246-30.773-19.3-8.016-68.338-14.992-101.004.575-150.712-.843-301.431.183-452.137-38.712-12.599-82.019-11.016-120.754-1.652l-.093 542.25c-14.484-12.764-41.214 9.715-31.946-22.637-.239-158.58.444-317.161.336-475.742-37.864 4.793-94.837-9.511-120.574 7.399-.01 153.251-.013 306.502-.02 459.753-33.19 36.612-34.928-41.215-31.757-66.343l.21-319.524c-38.249 4.005-92.555-8.027-120.742 6.028-.278 92.472.932 184.953.02 277.418-4.386.48-7.78 1.066-10.316 1.71-31.953-4.013-19.619-50.465-21.418-77.113l.008-127.18q-60.268-.003-120.536-.007c-.05 46.933 1.24 93.937-.367 140.832-19.338-18.066-60.127-9.671-60.297-44.88-41.446-1.656-6.584-54.73-34.707-72.058-23.817-18.949-11.736-49.26-8.14-75.031 3.65-24.22-14.097-44.019-9.098-64.88 16.54-31.643-27.92-49.416-33.512-68.784 18.888-26.218 25.657-60.664 16.528-92.043-3.27-21.14-14.101-48.235 17.28-47.246 43.093-13.215 86.422-25.681 129.665-38.336 3.661-.64 6.392-2.782 8.293-5.797 12.538-8.028 28.274-21.488 29.43-30.637 40.241-19.465 80.5-41.84 126.8-46.785zm66.668 19.032c.167-.01.454.111.887.39 14.448 7.52 30.004 19.49 3.187 9.27 2.284.6-5.547-9.577-4.074-9.66zm369.293 51.878c28.875-1.87 58.713 67.879 19.68 43.32-21.451-11.53-83.7-33.572-75.66-37.288 18.704-1.356 37.496-3.794 55.98-6.032z" style="fill:#3e5ee0;fill-opacity:1;stroke:#3e5ee0;stroke-opacity:1"/></svg>