<?xml version="1.0" encoding="UTF-8" standalone="no"?>
<svg
   version="1.1"
   style="display:block"
   viewBox="0 0 977.56482 922.16074"
   width="488.78241"
   height="461.08035"
   preserveAspectRatio="none"
   id="svg13"
   xmlns="http://www.w3.org/2000/svg"
   xmlns:svg="http://www.w3.org/2000/svg">
  <defs
     id="defs2" />
  <path
     id="path16"
     style="fill:#3e5ee0;fill-opacity:1;stroke:#3e5ee0;stroke-opacity:1"
     d="m 405.00123,0.5076587 c -46.23479,6.58667 -94.76534,12.3871403 -134.19922,38.8242203 -28.82738,-0.03103 -59.43154,37.73302 -74.45312,52.855469 -42.08067,8.508942 -82.80878,24.042002 -124.199219,35.699222 -21.28013,12.0958 -72.44514985,4.90452 -53.44532,40.08203 4.64352,27.07417 7.2452,54.47213 11.20703,81.61719 -2.80375,29.43624 -33.5367099,47.6428 -28.94530985,79.66016 12.09359985,15.36129 40.34214985,25.50889 41.37108985,44.47265 -18.11881,31.8764 26.90117,61.44346 0.44922,91.73829 -14.99482,21.76274 17.03243,47.7128 9.47266,74.29297 37.04037,10.54994 16.07632,53.81007 7.57031,78.53906 -21.48267,30.2246 26.31005,19.185 44.570319,27.99219 3.72302,-21.55364 8.67313,17.1044 26.51562,10.81641 23.0931,3.70396 42.41595,19.93388 61.91407,28.72265 7.10725,0.8914 -21.33763,14.34822 -0.12891,19.51172 30.28867,12.00357 31.27469,66.07779 67.61328,60.33594 17.4304,-11.25285 47.517,-25.59785 57.23828,-24.08203 19.05868,10.1667 32.82125,46.81336 55.10157,45.17578 0.42254,0.14241 1.0993,0.0702 2.08984,-0.26172 0.0768,-0.0137 0.1535,-0.0284 0.23047,-0.043 1.42046,-0.39755 2.79149,-1.06922 4.08984,-1.95703 1.38008,-0.74475 3.00173,-1.68282 4.89063,-2.83593 41.49791,6.3662 50.9819,49.40729 75.81641,75.80859 -0.982,35.58121 60.93363,4.9465 63.71875,-1.21094 21.80931,15.95066 -1.42625,55.8778 38.26172,43.22266 26.6602,9.6616 40.31386,3.42204 51.35156,-23.41016 34.0363,-6.5041 60.78632,29.49828 87.45702,-9.13672 42.3339,-13.9977 63.9163,27.12641 101.1641,35.69141 29.345,5.2294 90.4158,45.40088 75.6211,-9.70312 -18.743,-37.4282 -24.2432,-82.74891 13.8398,-114.43751 23.0227,-34.0643 50.7972,-67.50809 81.7266,-88.74219 7.5814,-27.3947 1.0918,-58.45108 4.1211,-77.99218 -28.5056,-29.3083 -36.8418,-65.91434 -51.0469,-101.16016 -8.666,-32.6416 22.0799,-81.49392 -21.8984,-99.11329 -46.5362,-30.68875 67.4218,-43.36046 43.0976,-87.375 0.087,-46.28097 -20.0897,-87.97719 -36.3711,-129.96484 -11.9629,-36.73737 -6.3152,-87.5945 -49.8359,-103.890632 -34.9115,-37.03564 -82.0407,-3.916529 -125.8906,-8.230439 -66.80304,4.95617 -132.99696,-7.8377 -198.94926,-14.875 -28.5489,13.81926 -78.24902,32.046408 -61.26172,-19.582032 C 470.26984,23.937177 428.01258,5.5006087 405.00123,0.5076587 Z M 383.33717,49.316254 c 34.04066,-0.46183 13.36958,76.508956 63.07032,75.105466 46.21104,21.14527 88.05294,-22.28907 133.58594,-6.03515 31.73766,7.02127 65.49976,4.69319 97.17969,10.82422 -11.11603,5.51447 -23.12728,10.02774 -34.07422,15.375 -32.87,16.062 -70.32985,30.7195 -102.58985,47.3125 l 33.56641,15.03125 -0.0195,82.01172 16.04297,-0.0156 c -0.18,-25.052 -0.16093,-50.10425 0.0391,-75.15625 l 32.9375,14.55078 0.0312,60.9336 c 50.08001,-25.748 135.38861,-31.44091 183.80861,-0.004 -0.33,-17.371 -0.3789,-34.74909 -0.1289,-52.12109 -22.87,-23.625 -52.9991,-30.7815 -84.7891,-32.5625 l -4.9883,-10.17578 c 37,-1.844 71.7275,6.19237 102.1875,27.85937 15.1523,-6.9333 30.524,-13.40049 45.625,-20.25781 0.574,0.23145 1.1487,0.46386 1.7227,0.69531 6.1897,40.97605 57.0397,100.54437 21.2969,132.59766 -27.3573,17.78335 -64.4091,72.64839 -45.3555,97.4375 37.9517,8.28751 45.8969,32.98828 34.4219,67.125 9.5441,43.66792 18.8105,81.83545 46.7148,118.88672 -12.8085,14.7916 30.5405,50.61215 -9.9687,55.77735 -38.7878,44.7127 -70.17,95.26478 -105.0743,142.98438 11.7209,25.4628 11.524,60.76649 -14.7265,26.24609 -30.7733,-19.2994 -8.0154,-68.33771 -14.9922,-101.00391 0.5749,-150.7124 -0.8428,-301.43152 0.1836,-452.13672 -38.7125,-12.59902 -82.0189,-11.01649 -120.75392,-1.65235 -0.031,180.75052 -0.0617,361.49951 -0.0937,542.25001 -14.4838,-12.7645 -41.21321,9.71488 -31.94531,-22.63672 -0.239,-158.5798 0.44404,-317.16151 0.33594,-475.74219 -37.8639,4.79284 -94.83683,-9.51157 -120.57423,7.39843 -0.01,153.25168 -0.0135,306.50222 -0.0195,459.75392 -33.1908,36.6116 -34.92831,-41.21585 -31.75781,-66.34375 0.07,-106.508 0.14174,-213.01539 0.21094,-319.52345 -38.2494,4.00501 -92.55537,-8.02703 -120.74219,6.02735 -0.27798,92.47204 0.93157,184.95367 0.0195,277.41797 -4.38616,0.48014 -7.77939,1.06629 -10.31641,1.71094 -31.95263,-4.01363 -19.61827,-50.46508 -21.41797,-77.11328 0.003,-42.39265 0.006,-84.78704 0.008,-127.17969 -40.17838,-0.002 -80.35678,-0.006 -120.53516,-0.008 -0.0506,46.93366 1.23922,93.93779 -0.36719,140.83204 -19.33843,-18.06524 -60.12677,-9.67107 -60.29688,-44.87891 -41.446469,-1.65713 -6.58435,-54.7309 -34.70703,-72.05859 -23.817689,-18.94912 -11.736189,-49.2592 -8.140619,-75.03126 3.650029,-24.21953 -14.09672,-44.01851 -9.09766,-64.8789 16.539119,-31.64422 -27.91933,-49.41696 -33.51172,-68.78516 18.88783,-26.21825 25.65642,-60.66415 16.52735,-92.04297 -3.27026,-21.13974 -14.10087,-48.23529 17.28125,-47.2461 43.092129,-13.21439 86.421329,-25.68111 129.664059,-38.33593 3.66106,-0.64063 6.39215,-2.78146 8.29297,-5.79688 12.53843,-8.02747 28.27416,-21.488 29.42969,-30.636719 40.24131,-19.46495 80.49945,-41.840887 126.80078,-46.785157 z m 66.66797,19.03125 c 0.16657,-0.0094 0.45435,0.111813 0.88672,0.390625 14.44775,7.51954 30.00372,19.490372 3.1875,9.269532 2.28376,0.600434 -5.54774,-9.577056 -4.07422,-9.660157 z m 369.29298,51.878906 c 28.8747,-1.87079 58.7125,67.87863 19.6797,43.32032 -21.4513,-11.53152 -83.7,-33.57319 -75.6602,-37.28907 18.704,-1.35587 37.4962,-3.79385 55.9805,-6.03125 z" />
</svg>
