<svg xmlns="http://www.w3.org/2000/svg" viewBox="0 0 1017.49 960.2"><path d="M185.67 651.332c35.35 21.008 69.048 45.331 105.433 64.258 40.15 15.944 81.46 29.959 120.884 47.11 35.673 32.217 72.672 62.803 111.668 90.93 100.01 3.92 200.339 2.342 299.935 13.367 12.367-9.613 20.583-28.15 31.345-41.213l110.321-157.183-77.712-272.608 49.341-93.748-81.412-188.729-329.35 9.869-103.617-59.21C307.701 98.425 192.893 132.662 78.354 167.792c-3.195 61.205-8.808 122.486-10.499 183.642 11.83 86.535 21.264 173.325 27.768 260.426z" style="display:block;fill:#fff;fill-opacity:1"/><path d="M424.344 0c-48.08 6.73-98.271 13.074-140.235 39.469-33.832 6.45-55.833 30.92-78.793 54.37C148.46 106.354 94.06 128.7 37.38 142.099c-34.878 14.721-16.745 56.746-13.664 84.18 11.5 31.59 1.519 62.315-17.047 88.523-17.886 29.043 3.231 57.096 27.684 72.367 10.09 19.988 1.147 44.88 14.57 65.824.43 25.639-20.399 51.082-2.367 76.91 8.663 19.012 1.15 48.277 25.07 54.52 8.818 28.164-29.692 52.117-11.902 79.133 19.055 25.188 53.671 15.639 78.62 30.246 27.306 1.895 44.49 26.214 68.11 33.707 1.98 1.361 4.526 2.257 7.61 2.426 23.088 13.375 25.103 46.718 50.187 57.777 14.36 7.05 26.343-4.786 38.547-10.563 10.72-5.059 21.614-10.869 33.57-12.066 18.862 12.087 26.749 37.675 49.266 44.652 3.527 1.02 6.863.99 9.926.168 2.906.316 6.993-.768 12.402-3.804 35.388 8.864 46.09 48.703 67.867 73.16 6.025 38.027 54.49 5.843 70.406 5.39 4.706 18.323 8.076 51.19 35.5 38.657 25.556 15.298 45.859-8.148 58.016-24.399 24.239-1.235 49.598 20.274 72.145 2.89 14.846-24.101 46.573-12.863 64.722 1.173 5.233 3.978 12.99 9.36 20.84 13.793 3.759 6.87 8.567 13.092 14.606 18.336 29.277 20.818 81.971 42.877 105.789 2.672 7.189-41.01-40.737-93.108 7.824-125.625 21.204-40.959 62.629-65.734 88.18-103.434 5.122-41.037 9.91-90.35-23.512-121.531-26.54-40.457-25.177-86.712-22.29-131.09-10.714-25.198-43.754-43.947-.91-57.559 38.92-38.467 18.247-96.346 2.34-140.437-20.07-40.93-24.459-86.797-40.261-128.688-25.275-47.535-85.676-68.627-135.953-51.133-80.871 13.175-162.062-5.054-242.676-11.25-20.75 18.384-49.938 16.638-40.278-15.355-17.41-30.6-53.264-44.953-85.972-51.668m-36.238 91.785c9.59.414 17.97 4.744 24.082 15.707-1.607 50.04 58.37 69.003 99.777 60.606 47.018-18.63 95.713-10.557 144.055-2.903 55.461 6.891 112.913 7.62 167.457-5.812 52.539 3.793 30.784 71.89 55.953 103.625 29.986 41.458 18.259 85.33-20.54 115.277-29.728 29.924-30.414 84.888 12.657 102.82 21.428 25.002-4.884 66.043 19.812 96.754 7.652 34.912 48.988 75.173 26.645 108.453-39.445 32.758-60.003 81.309-93.516 119.825-8.088 20.26-11.515 19.511-24.445 12.879.467-27.033 4.891-54.03 2.926-81.18.347-143.52-.861-287.04.129-430.559-21.303-7.231-43.863-10.336-66.32-10.136-18.976 3.97-57.795-3.876-62.45 16.746q-.046 265.01-.094 530.023c-13.489-2.212-34.305 3.369-23.949-18.547-.216-159.15.446-318.3.336-477.449-41.497 6.925-86.084-10.551-125.512 7.766-7.695 16.807-.624 41.282-3.062 60.808l-.02 401.508c-25.922 21.28-24.746-32.026-24.808-48.5 2.467-101.513.504-203.194 1.242-304.773-.087-18.785 6.344-43.315-20.172-34.18-36.025 1.337-74.424-8.838-108.543 6.656-.29 92.136.895 184.275.043 276.41-3.17.13-5.747.53-7.797 1.125-8.588-2.272-15.252-10.036-15.757-19.468-2.755-20.565 1.033-41.306-.204-61.961-.009-40.915.005-81.828.004-122.743l-128.539-.008v2l.004 2v.004c-.166 37.87.937 75.785.25 113.649-5.697-2.614-12.182-3.797-19.105-3.055-23.096-4.518-15.075-38.904-37.164-35.988-4.766-24.084-2.406-50.628-23.23-69.625-18.706-27.02 11.5-57.006-3.66-86.027-11.93-26.136 7.03-56.77-12.985-80.61-20.101-11.143-25.477-31.3-10.742-49.926 9.755-30.01 2.522-61.774-2.942-91.882 21.255-6.72 43.44-10.202 64.086-18.82 28.984-9.133 60.237-14.043 86.805-28.958a36 36 0 0 0 2.297-2.578c17.182-10.98 33.087-29.857 47.562-40.648 22.527-4.834 54.925-29.363 79.434-28.305z" style="fill:#6d8bff;fill-opacity:1"/></svg>