<svg xmlns="http://www.w3.org/2000/svg" xmlns:xlink="http://www.w3.org/1999/xlink" viewBox="0 0 2247.266 609.156"><defs><linearGradient id="a" x1="1490.6" x2="804.279" y1="824.468" y2="928.808" gradientUnits="userSpaceOnUse"><stop class="stop0" offset="0" stop-color="#9837e1"/><stop class="stop1" offset="1" stop-color="#2e65e0"/></linearGradient><linearGradient xlink:href="#a" id="b" x1="1490.6" x2="804.279" y1="824.468" y2="928.808" gradientTransform="translate(-352.709 -272.233)scale(.66057)" gradientUnits="userSpaceOnUse"/><linearGradient xlink:href="#a" id="c" x1="1490.6" x2="804.279" y1="824.468" y2="928.808" gradientTransform="translate(-352.709 -272.233)scale(.66057)" gradientUnits="userSpaceOnUse"/></defs><path d="M267.53.335c-30.541 4.351-62.6 8.183-88.648 25.646-19.043-.02-39.257 24.926-49.18 34.915-27.797 5.62-54.7 15.884-82.042 23.585-14.057 7.99-47.855 3.24-35.304 26.477 3.067 17.884 4.783 35.98 7.4 53.911-1.852 19.445-22.15 31.472-19.118 52.621 7.989 10.148 26.647 16.853 27.326 29.38-11.969 21.057 17.77 40.585.297 60.597-9.905 14.376 11.254 31.52 6.26 49.08 24.468 6.968 10.617 35.544 4.998 51.88-14.19 19.965 17.38 12.67 29.442 18.488 2.46-14.238 5.732 11.3 17.518 7.145 15.255 2.447 28.016 13.168 40.896 18.973 4.695.59-14.092 9.478-.082 12.89 20.007 7.928 20.656 43.648 44.66 39.855 11.514-7.433 31.391-16.906 37.813-15.905 12.59 6.716 21.679 30.92 36.396 29.84.28.094.727.046 1.383-.174l.152-.028c.939-.263 1.844-.706 2.702-1.293a71 71 0 0 0 3.228-1.873c27.412 4.205 33.677 32.637 50.082 50.077-.649 23.504 40.254 3.267 42.094-.8 14.406 10.537-.943 36.914 25.274 28.554 17.611 6.382 26.63 2.258 33.922-15.466 22.483-4.297 40.153 19.488 57.771-6.033 27.965-9.247 42.219 17.92 66.824 23.576 19.384 3.455 59.728 29.991 49.955-6.41-12.38-24.723-16.014-54.663 9.143-75.596 15.208-22.502 33.555-44.594 53.986-58.62 5.008-18.097.721-38.612 2.722-51.52-18.83-19.36-24.339-43.54-33.722-66.824-5.725-21.562 14.587-53.83-14.463-65.468-30.74-20.273 44.534-28.646 28.466-57.72.058-30.572-13.27-58.116-24.026-85.852-7.902-24.267-4.169-57.862-32.917-68.627-23.062-24.465-54.197-2.584-83.163-5.434-44.128 3.274-87.854-5.18-131.42-9.829-18.858 9.13-51.686 21.172-40.465-12.932-3.043-15.607-30.96-27.788-46.16-31.086zm-14.31 32.242c22.486-.305 8.83 50.54 41.662 49.612 30.525 13.968 58.168-14.72 88.245-3.984 20.965 4.638 43.268 3.098 64.195 7.148-7.343 3.642-15.28 6.626-22.511 10.16-21.713 10.61-46.458 20.29-67.768 31.25l22.175 9.93-.013 54.173 10.595-.01a3273 3273 0 0 1 .026-49.644l21.76 9.61.02 40.25c33.082-17.008 89.435-20.768 121.42 0-.218-11.476-.25-22.953-.085-34.429-15.108-15.606-35.013-20.336-56.012-21.512l-3.295-6.722c24.44-1.218 47.383 4.093 67.504 18.406 10.01-4.58 20.161-8.855 30.136-13.384l1.138.46c4.09 27.066 37.682 66.416 14.071 87.59-18.071 11.746-42.55 47.991-29.963 64.366 25.07 5.475 30.318 21.791 22.738 44.341 6.305 28.846 12.428 54.058 30.861 78.533-8.46 9.771 20.174 33.43-6.585 36.843-25.622 29.536-46.352 62.93-69.409 94.451 7.742 16.82 7.612 40.14-9.728 17.338-20.328-12.749-5.297-45.14-9.906-66.718.38-99.557-.554-199.12.124-298.672-25.572-8.322-54.18-7.277-79.767-1.09l-.064 358.194c-9.568-8.432-27.225 6.417-21.102-14.953-.158-104.753.293-209.508.221-314.262-25.011 3.166-62.644-6.283-79.645 4.887q-.009 151.852-.013 303.703c-21.925 24.185-23.075-27.228-20.98-43.827l.139-211.068c-25.267 2.645-61.14-5.303-79.76 3.981-.183 61.085.619 122.178.016 183.257-2.896.317-5.136.705-6.812 1.13-21.11-2.649-12.964-33.337-14.153-50.94l.005-84.012-79.622-.005c-.034 31.003.818 62.052-.243 93.03-12.774-11.934-39.718-6.387-39.83-29.644-27.379-1.094-4.347-36.156-22.924-47.602-15.734-12.518-7.755-32.54-5.38-49.564 2.41-15.999-9.312-29.077-6.01-42.857 10.925-20.903-18.443-32.643-22.137-45.438 12.477-17.319 16.95-40.073 10.92-60.8-2.16-13.965-9.317-31.86 11.413-31.207 28.466-8.73 57.09-16.967 85.655-25.327 2.419-.423 4.22-1.835 5.476-3.826 8.282-5.303 18.677-14.197 19.44-20.24 26.582-12.859 53.176-27.64 83.761-30.906zm44.04 12.571c.11-.006.298.074.584.258 9.544 4.967 19.82 12.877 2.106 6.126 1.508.397-3.663-6.329-2.69-6.384zm243.943 34.27c19.074-1.236 38.786 44.841 13.002 28.62-14.17-7.619-55.292-22.18-49.981-24.636 12.355-.896 24.769-2.506 36.979-3.984z" style="fill:url(#b);stroke:url(#c);stroke-width:.660572;stroke-opacity:1"/><path fill="#3464dc" d="M841.432 255.948c17.601-.387 35.482.067 53.236-.136 37.138-.511 76.926-2.01 105.71 26.132 36.59 35.77 34.989 93.527.348 129.423-30.959 27.214-64.45 25.716-102.25 25.725l-56.85-.038zm43.298 145.423c26.363.221 62.609 4.765 82.801-15.218 20.875-22.893 21.45-58.151-.81-80.039-19.624-19.297-56.846-15.178-82.548-15.168-.046 35.442-.791 75.301.557 110.424" style="stroke-width:.966779"/><path fill="#8041de" d="m1662.87 255.774 5.085-.029 54.651.048c37.637.136 74.8-.125 102.566 28.955 34.214 35.82 29.544 94.097-4.312 127.528-42.77 35.915-103.551 21.075-157.526 24.295zm43.369 145.355c28.694.29 60.307 4.727 82.766-14.443 21.336-23.416 22.274-58.684-.55-81.567-18.989-19.027-57.331-14.985-82.352-14.628-.203 36.883-.154 73.765.136 110.638" style="stroke-width:.966779"/><path fill="#3464dc" d="M1263.932 256.48c24.991-.995 95.072-2.687 115.689 3.878 16.489 5.25 30.608 16.27 38.4 31.883 7.519 15.054 8.25 34.892 2.656 50.67-5.99 16.908-17.717 27.088-33.46 34.61 13.07 19.133 28.377 41.32 42.528 59.525l-21.002-.136-27.885-.02a3396 3396 0 0 0-35.427-51.79 1243 1243 0 0 0-38.448.039c.834 13.96.153 37.154.25 52.06l-42.792-.115c-.454-58.935 1.047-122.19-.51-180.604m42.932 34.428c-.094 20.06-.42 40.565-.213 60.578 15.956-.494 44.503 1.73 57.64-3.867 15.592-8.885 21.047-26.586 12.156-42.529-10.073-18.06-39.3-14.56-57.501-14.395z" style="fill:#8041de;fill-opacity:1;stroke-width:.966779"/><path fill="#8041de" d="M2082.392 255.766c30.975.803 92.037-4.244 118.275 5.512 15.574 5.79 29.438 16.55 36.302 32.019 7.048 15.864 7.193 36.573.648 52.621-5.762 14.115-17.701 24.904-31.671 30.734a2253 2253 0 0 0 41.32 60.907c-4.37-.532-10.713-.416-15.266-.474h-32.193c-9.32-11.05-26.693-39.193-35.21-52.254a2126 2126 0 0 0-39.261-.097q-.061 26.029.183 52.07l-42.73.059c-.871-19.771-.282-42.683-.233-62.811.165-39.436.106-78.86-.164-118.286m42.924 95.614 1.15-.116c18.205-1.624 48.842 3.355 63.16-7.937 6.178-6.612 9.523-13.302 9.262-22.477-1.112-40.112-48.61-28.685-73.59-30.82 0 20.272-.233 41.126.018 61.35zm-158.531-95.674c3.635.01 9.049.57 12.82.841 8.236 15.226 19.044 41.214 26.702 57.717a12966 12966 0 0 0 57.513 122.587c-15.024.3-30.734 0-45.816-.078-6.052-11.94-11.997-26.093-17.276-38.41l-50.591.03-36.505.115c-4.709 12.53-10.422 25.677-15.584 38.052-14.348-.231-29.507.117-43.854.454 5.617-14.55 13.767-31.854 20.167-46.27a6981 6981 0 0 1 39.183-86.767c5.23-11.37 15.99-38.903 21.289-47.923 10.364-.416 21.52-.28 31.952-.348m-38.864 109.536 32.077.038 26.258.01c-3.955-8.42-27.34-63.884-29.603-65.982-8.991 20.563-19.21 46.192-28.732 65.934" style="stroke-width:.966779"/><path fill="#3464dc" d="M1516.365 256.253c14.307-.416 30.308-.05 44.742-.04a5241 5241 0 0 0 84.274 180.382c-12.433-.997-32.813-.214-46.28-.339-5.762-11.215-12.066-26.18-16.822-37.868l-17.77-.068c-22.641.348-45.921-.223-68.766 0-4.592 8.488-12.181 28.432-16.165 38.1-14.559.164-29.274.455-43.804.01 9.542-24.034 23.194-52.902 34.04-76.655a4960 4960 0 0 0 46.55-103.522m-7.164 109.12 28.124.029 30.85.01a1004 1004 0 0 1-19.49-44.356c-2.659-6.323-7.116-18.079-9.997-23.773-9.261 21.143-19.8 47.875-29.486 68.09" style="fill:#8041de;fill-opacity:1;stroke-width:.966779"/><path fill="#3464dc" d="M803.74 255.74c2.385 2.823 1.335 28.838 1.295 34.765-29.105-1.575-68.884-.377-98.728-.358l-.056 38.314c27.581-.377 59.525-.61 86.93.126l.011 32.87-86.97.019c.257 13.467.271 26.943.043 40.42l87.686.126 14.728.087.152 34.872-145.104-.087c.703-18.823 0-41.427-.014-60.559l-.045-120.267zm273.382-1.42c7.335-.097 14.67-.126 22.006-.078 1.098 24.943-.022 51.597.148 77.168-.929 31.836-1.886 70.652 41.639 70.787 46.539.155 40.656-46.772 40.568-78.337l-.166-68.951c11.078-.59 31.379-.908 42.104.145l-.066 52.467c.146 34.417 5.665 76.994-17.206 105.108-26.777 32.908-93.38 33.48-124.159 7.077a66.5 66.5 0 0 1-19.349-28.047c-10.827-30.868-3.503-99.983-6.324-136.876z" style="stroke-width:.966779"/></svg>