<svg xmlns="http://www.w3.org/2000/svg" xmlns:xlink="http://www.w3.org/1999/xlink" viewBox="0 0 1638.021 1219.857"><defs><linearGradient id="a" x1="1490.6" x2="804.279" y1="824.468" y2="928.808" gradientUnits="userSpaceOnUse"><stop class="stop0" offset="0" stop-color="#9837e1"/><stop class="stop1" offset="1" stop-color="#2e65e0"/></linearGradient><linearGradient xlink:href="#a" id="b" x1="1490.6" x2="804.279" y1="824.468" y2="928.808" gradientTransform="translate(-205.069 -412.125)" gradientUnits="userSpaceOnUse"/><linearGradient xlink:href="#a" id="c" x1="1490.6" x2="804.279" y1="824.468" y2="928.808" gradientTransform="translate(-205.069 -412.125)" gradientUnits="userSpaceOnUse"/></defs><path d="M733.875.5c-46.235 6.587-94.765 12.387-134.2 38.824-28.827-.03-59.43 37.733-74.452 52.856-42.081 8.509-82.81 24.042-124.2 35.699-21.28 12.096-72.445 4.904-53.445 40.082 4.644 27.074 7.245 54.472 11.207 81.617-2.804 29.436-33.537 47.643-28.945 79.66 12.093 15.362 40.342 25.51 41.37 44.473-18.118 31.876 26.902 61.443.45 91.738-14.995 21.763 17.033 47.713 9.473 74.293 37.04 10.55 16.076 53.81 7.57 78.54-21.483 30.224 26.31 19.184 44.57 27.991 3.723-21.553 8.674 17.105 26.516 10.817 23.093 3.704 42.416 19.934 61.914 28.723 7.107.89-21.337 14.348-.129 19.511 30.289 12.004 31.275 66.078 67.614 60.336 17.43-11.253 47.517-25.598 57.238-24.082 19.058 10.167 32.821 46.814 55.101 45.176.423.142 1.1.07 2.09-.262q.116-.02.23-.043c1.421-.397 2.792-1.069 4.09-1.957 1.38-.745 3.002-1.683 4.891-2.836 41.498 6.366 50.982 49.408 75.817 75.809-.982 35.581 60.933 4.946 63.718-1.211 21.81 15.95-1.426 55.878 38.262 43.223 26.66 9.661 40.314 3.422 51.352-23.41 34.036-6.505 60.786 29.498 87.457-9.137 42.334-13.998 63.916 27.126 101.164 35.691 29.345 5.23 90.416 45.401 75.62-9.703-18.742-37.428-24.242-82.749 13.84-114.438 23.023-34.064 50.798-67.508 81.727-88.742 7.582-27.394 1.092-58.45 4.121-77.992-28.505-29.308-36.841-65.914-51.047-101.16-8.666-32.642 22.08-81.494-21.898-99.113-46.536-30.69 67.422-43.36 43.098-87.375.087-46.281-20.09-87.978-36.371-129.965-11.963-36.738-6.316-87.595-49.836-103.89-34.912-37.036-82.041-3.917-125.891-8.231-66.803 4.956-132.997-7.838-198.95-14.875-28.548 13.819-78.248 32.046-61.261-19.582C799.144 23.93 756.886 5.493 733.875.5Zm-21.664 48.809c34.04-.462 13.37 76.509 63.07 75.105 46.211 21.145 88.053-22.289 133.586-6.035 31.738 7.021 65.5 4.693 97.18 10.824-11.116 5.515-23.127 10.028-34.074 15.375-32.87 16.062-70.33 30.72-102.59 47.313l33.566 15.03-.02 82.013 16.044-.016c-.18-25.052-.161-50.104.039-75.156l32.937 14.55.032 60.934c50.08-25.748 135.388-31.44 183.808-.004-.33-17.37-.379-34.749-.129-52.121-22.87-23.625-52.999-30.781-84.789-32.562l-4.988-10.176c37-1.844 71.727 6.192 102.187 27.86 15.153-6.934 30.524-13.401 45.625-20.259l1.723.696c6.19 40.976 57.04 100.544 21.297 132.597-27.357 17.784-64.41 72.649-45.356 97.438 37.952 8.287 45.897 32.988 34.422 67.125 9.544 43.668 18.81 81.835 46.715 118.887-12.808 14.791 30.54 50.612-9.969 55.777-38.787 44.713-70.17 95.265-105.074 142.984 11.721 25.463 11.524 60.767-14.726 26.246-30.774-19.3-8.016-68.337-14.993-101.004.575-150.712-.842-301.431.184-452.136-38.712-12.6-82.019-11.017-120.754-1.653q-.046 271.125-.094 542.25c-14.483-12.764-41.213 9.715-31.945-22.636-.239-158.58.444-317.162.336-475.743-37.864 4.793-94.837-9.511-120.574 7.399q-.013 229.877-.02 459.754c-33.19 36.611-34.928-41.216-31.758-66.344q.106-159.762.211-319.523c-38.249 4.005-92.555-8.027-120.742 6.027-.278 92.472.932 184.954.02 277.418-4.386.48-7.78 1.066-10.317 1.71-31.952-4.013-19.618-50.464-21.418-77.112l.008-127.18-120.535-.008c-.05 46.934 1.24 93.938-.367 140.832-19.338-18.065-60.127-9.671-60.297-44.879-41.446-1.657-6.584-54.73-34.707-72.059-23.818-18.949-11.736-49.259-8.14-75.03 3.65-24.22-14.097-44.02-9.098-64.88 16.539-31.644-27.92-49.417-33.512-68.785 18.888-26.218 25.657-60.664 16.527-92.043-3.27-21.14-14.1-48.235 17.282-47.246 43.092-13.214 86.421-25.681 129.664-38.336 3.66-.64 6.392-2.781 8.293-5.797 12.538-8.027 28.274-21.488 29.43-30.636 40.24-19.465 80.499-41.841 126.8-46.786zm66.668 19.03c.166-.009.454.113.887.391 14.447 7.52 30.003 19.49 3.187 9.27 2.284.6-5.548-9.577-4.074-9.66zm369.293 51.88c28.875-1.871 58.712 67.878 19.68 43.32-21.452-11.531-83.7-33.573-75.66-37.289 18.703-1.356 37.496-3.794 55.98-6.031z" style="fill:url(#b);stroke:url(#c);stroke-opacity:1"/><path fill="#3464dc" d="M183.873 1029.585c18.206-.4 36.701.07 55.066-.14 38.414-.53 79.57-2.08 109.342 27.03 37.847 37 36.192 96.74.36 133.87-32.022 28.15-66.665 26.6-105.763 26.61l-58.804-.04zm44.786 150.42c27.269.23 64.761 4.93 85.647-15.74 21.592-23.68 22.187-60.15-.838-82.79-20.299-19.96-58.8-15.7-85.385-15.69-.048 36.66-.818 77.89.576 114.22"/><path fill="#8041de" d="m1033.541 1029.665 5.26-.03 56.53.05c38.93.14 77.37-.13 106.09 29.95 35.39 37.05 30.56 97.33-4.46 131.91-44.24 37.15-107.11 21.8-162.94 25.13zm44.86 150.35c29.68.3 62.38 4.89 85.61-14.94 22.07-24.22 23.04-60.7-.57-84.37-19.64-19.68-59.3-15.5-85.18-15.13-.21 38.15-.16 76.3.14 114.44"/><path fill="#3464dc" d="M620.893 1029.985c25.85-1.03 98.34-2.78 119.665 4.01 17.056 5.43 31.66 16.83 39.72 32.98 7.777 15.57 8.533 36.09 2.747 52.41-6.196 17.49-18.325 28.02-34.609 35.8 13.518 19.79 29.351 42.74 43.989 61.57l-21.724-.14-28.843-.02a3513 3513 0 0 0-36.644-53.57c-13.256-.19-26.514-.18-39.77.04.863 14.44.158 38.43.258 53.85l-44.262-.12c-.469-60.96 1.083-126.39-.527-186.81m44.407 35.61c-.098 20.75-.434 41.96-.22 62.66 16.504-.51 46.032 1.79 59.62-4 16.128-9.19 21.77-27.5 12.574-43.99-10.419-18.68-40.65-15.06-59.477-14.89z" style="fill:#8041de;fill-opacity:1"/><path fill="#8041de" d="M1467.481 1029.605c32.04.83 95.2-4.39 122.34 5.7 16.11 5.99 30.45 17.12 37.55 33.12 7.29 16.41 7.44 37.83.67 54.43-5.96 14.6-18.31 25.76-32.76 31.79 13.9 21.23 28.15 42.23 42.74 63-4.52-.55-11.08-.43-15.79-.49h-33.3c-9.64-11.43-27.61-40.54-36.42-54.05-13.53-.16-27.07-.19-40.61-.1-.04 17.95.02 35.9.19 53.86l-44.2.06c-.9-20.45-.29-44.15-.24-64.97.17-40.79.11-81.57-.17-122.35m44.4 98.9 1.19-.12c18.83-1.68 50.52 3.47 65.33-8.21 6.39-6.84 9.85-13.76 9.58-23.25-1.15-41.49-50.28-29.67-76.12-31.88 0 20.97-.24 42.54.02 63.46M1347.901 1029.365c3.76.01 9.36.59 13.26.87 8.52 15.75 19.7 42.63 27.62 59.7 19.61 42.37 39.44 84.64 59.49 126.8-15.54.31-31.79 0-47.39-.08-6.26-12.35-12.41-26.99-17.87-39.73l-52.33.03-37.76.12c-4.87 12.96-10.78 26.56-16.12 39.36-14.84-.24-30.52.12-45.36.47 5.81-15.05 14.24-32.95 20.86-47.86 13.3-30.01 26.82-59.92 40.53-89.75 5.41-11.76 16.54-40.24 22.02-49.57 10.72-.43 22.26-.29 33.05-.36m-40.2 113.3 33.18.04 27.16.01c-4.09-8.71-28.28-66.08-30.62-68.25-9.3 21.27-19.87 47.78-29.72 68.2"/><path fill="#3464dc" d="M882.001 1029.975c14.8-.43 31.35-.05 46.28-.04a5421 5421 0 0 0 87.17 186.58c-12.86-1.03-33.94-.22-47.87-.35-5.96-11.6-12.48-27.08-17.4-39.17l-18.38-.07c-23.42.36-47.5-.23-71.13 0-4.75 8.78-12.6 29.41-16.72 39.41-15.06.17-30.28.47-45.31.01 9.87-24.86 23.99-54.72 35.21-79.29 16.46-35.51 32.51-71.21 48.15-107.08m-7.41 112.87 29.09.03 31.91.01c-7.09-15.13-13.81-30.43-20.16-45.88-2.75-6.54-7.36-18.7-10.34-24.59-9.58 21.87-20.48 49.52-30.5 70.43" style="fill:#8041de;fill-opacity:1"/><path fill="#3464dc" d="M144.886 1029.505c2.467 2.92 1.38 29.83 1.339 35.96-30.105-1.63-71.251-.39-102.12-.37l-.058 39.63c28.529-.39 61.571-.63 89.917.13l.012 34-89.959.02c.266 13.93.28 27.87.044 41.81l90.7.13 15.234.09.157 36.07-150.091-.09c.727-19.47.002-42.85-.015-62.64L0 1029.845ZM427.663 1029.345c7.587-.1 15.175-.13 22.763-.08 1.135 25.8-.023 53.37.152 79.82-.96 32.93-1.95 73.08 43.07 73.22 48.139.16 42.054-48.38 41.962-81.03l-.17-71.32c11.458-.61 32.456-.94 43.55.15l-.068 54.27c.151 35.6 5.86 79.64-17.797 108.72-27.697 34.04-96.59 34.63-128.426 7.32a68.8 68.8 0 0 1-20.014-29.01c-11.2-31.93-3.624-103.42-6.542-141.58z"/></svg>