<svg xmlns="http://www.w3.org/2000/svg" xmlns:xlink="http://www.w3.org/1999/xlink" viewBox="0 0 3010.567 609.148"><defs><linearGradient id="a" x1="1490.6" x2="804.279" y1="824.468" y2="928.808" gradientUnits="userSpaceOnUse"><stop class="stop0" offset="0" stop-color="#9837e1"/><stop class="stop1" offset="1" stop-color="#2e65e0"/></linearGradient><linearGradient xlink:href="#a" id="b" x1="1490.6" x2="804.279" y1="824.468" y2="928.808" gradientTransform="translate(-352.709 -272.241)scale(.66057)" gradientUnits="userSpaceOnUse"/><linearGradient xlink:href="#a" id="c" x1="1490.6" x2="804.279" y1="824.468" y2="928.808" gradientTransform="translate(-352.709 -272.241)scale(.66057)" gradientUnits="userSpaceOnUse"/></defs><path d="M267.53.327c-30.541 4.351-62.6 8.183-88.648 25.646-19.043-.02-39.257 24.926-49.18 34.915-27.797 5.62-54.7 15.884-82.042 23.585-14.057 7.99-47.855 3.24-35.304 26.477 3.067 17.884 4.783 35.98 7.4 53.911-1.852 19.445-22.15 31.472-19.118 52.621 7.989 10.148 26.647 16.853 27.326 29.38-11.969 21.057 17.77 40.585.297 60.597-9.905 14.376 11.254 31.52 6.26 49.079 24.468 6.969 10.617 35.545 4.998 51.88-14.19 19.966 17.38 12.671 29.442 18.489 2.46-14.238 5.732 11.299 17.518 7.145 15.255 2.447 28.016 13.168 40.896 18.973 4.695.59-14.092 9.478-.082 12.89 20.007 7.928 20.656 43.648 44.66 39.855 11.514-7.433 31.391-16.906 37.813-15.905 12.59 6.716 21.679 30.92 36.396 29.84.28.094.727.046 1.383-.174l.152-.028c.939-.263 1.844-.706 2.702-1.293a71 71 0 0 0 3.228-1.873c27.412 4.205 33.677 32.637 50.082 50.077-.649 23.504 40.254 3.267 42.094-.8 14.406 10.537-.943 36.914 25.274 28.554 17.611 6.382 26.63 2.258 33.922-15.466 22.483-4.297 40.153 19.488 57.771-6.033 27.965-9.247 42.219 17.919 66.824 23.576 19.384 3.455 59.728 29.991 49.955-6.41-12.38-24.723-16.014-54.663 9.143-75.596 15.208-22.502 33.555-44.594 53.986-58.62 5.008-18.097.721-38.612 2.722-51.52-18.83-19.36-24.339-43.541-33.722-66.824-5.725-21.562 14.587-53.83-14.463-65.468-30.74-20.273 44.534-28.646 28.466-57.72.058-30.572-13.27-58.116-24.026-85.852-7.902-24.267-4.169-57.862-32.917-68.627-23.062-24.465-54.197-2.584-83.163-5.434-44.128 3.274-87.854-5.18-131.42-9.829-18.858 9.129-51.686 21.172-40.465-12.932-3.043-15.607-30.96-27.788-46.16-31.086Zm-14.31 32.242c22.486-.305 8.83 50.54 41.662 49.612 30.525 13.968 58.168-14.72 88.245-3.984 20.965 4.638 43.268 3.098 64.195 7.148-7.343 3.642-15.28 6.626-22.511 10.159-21.713 10.61-46.458 20.29-67.768 31.25l22.175 9.93-.013 54.174 10.595-.01a3273 3273 0 0 1 .026-49.644l21.76 9.61.02 40.25c33.082-17.008 89.435-20.768 121.42-.001-.218-11.475-.25-22.952-.085-34.428-15.108-15.606-35.013-20.336-56.012-21.512l-3.295-6.722c24.44-1.218 47.383 4.093 67.504 18.406 10.01-4.58 20.161-8.855 30.136-13.384q.57.229 1.138.459c4.09 27.067 37.682 66.417 14.071 87.59-18.071 11.747-42.55 47.992-29.963 64.367 25.07 5.475 30.318 21.791 22.738 44.341 6.305 28.846 12.428 54.058 30.861 78.533-8.46 9.771 20.174 33.43-6.585 36.843-25.622 29.536-46.352 62.929-69.409 94.451 7.742 16.82 7.612 40.14-9.728 17.338-20.328-12.749-5.297-45.14-9.906-66.718.38-99.557-.554-199.12.124-298.672-25.572-8.322-54.18-7.277-79.767-1.091q-.031 179.097-.064 358.195c-9.568-8.432-27.225 6.417-21.102-14.953-.158-104.753.293-209.508.221-314.262-25.011 3.166-62.644-6.283-79.645 4.887q-.009 151.852-.013 303.703c-21.925 24.185-23.075-27.228-20.98-43.827q.069-105.534.139-211.068c-25.267 2.645-61.14-5.303-79.76 3.981-.183 61.085.619 122.178.016 183.257-2.896.317-5.136.705-6.812 1.13-21.11-2.649-12.964-33.337-14.153-50.941l.005-84.011-79.622-.005c-.034 31.003.818 62.052-.243 93.03-12.774-11.934-39.718-6.387-39.83-29.644-27.379-1.094-4.347-36.156-22.924-47.602-15.734-12.518-7.755-32.54-5.38-49.564 2.41-15.999-9.312-29.077-6.01-42.857 10.925-20.903-18.443-32.643-22.137-45.438 12.477-17.319 16.95-40.073 10.92-60.8-2.16-13.965-9.317-31.86 11.413-31.207 28.466-8.73 57.09-16.967 85.655-25.327 2.419-.423 4.22-1.835 5.476-3.826 8.282-5.303 18.677-14.197 19.44-20.24 26.582-12.859 53.176-27.64 83.761-30.906zm44.04 12.571c.11-.006.298.074.584.258 9.544 4.967 19.82 12.877 2.106 6.126 1.508.397-3.663-6.329-2.69-6.384zm243.943 34.27c19.074-1.236 38.786 44.841 13.002 28.619-14.17-7.618-55.292-22.18-49.981-24.635 12.355-.896 24.769-2.506 36.979-3.984z" style="fill:url(#b);stroke:url(#c);stroke-width:.660572;stroke-opacity:1"/><path fill="#3464dc" d="M962.317 173.167c25.582-.562 51.57.098 77.374-.197 53.977-.744 111.806-2.922 153.64 37.98 53.18 51.99 50.854 135.933.506 188.105-44.995 39.554-93.673 37.376-148.61 37.39l-82.628-.056zm62.93 211.36c38.316.322 90.997 6.926 120.345-22.118 30.34-33.273 31.175-84.518-1.178-116.33-28.522-28.046-82.621-22.06-119.976-22.046-.067 51.512-1.15 109.445.809 160.493" style="stroke-width:1.40513"/><path fill="#8041de" d="m2156.207 172.914 7.391-.042 79.432.07c54.702.197 108.715-.182 149.07 42.084 49.727 52.06 42.94 136.761-6.267 185.35-62.163 52.2-150.503 30.632-228.951 35.311zm63.034 211.261c41.704.422 87.652 6.871 120.293-20.992 31.011-34.033 32.374-85.291-.8-118.55-27.597-27.654-83.325-21.78-119.69-21.26-.295 53.605-.224 107.21.197 160.802" style="stroke-width:1.40513"/><path fill="#3464dc" d="M1576.385 173.941c36.323-1.447 138.18-3.906 168.144 5.635 23.966 7.63 44.487 23.648 55.812 46.34 10.928 21.879 11.99 50.712 3.86 73.644-8.706 24.575-25.75 39.371-48.63 50.303 18.994 27.808 41.242 60.055 61.81 86.514l-30.525-.197-40.528-.028a4936 4936 0 0 0-51.49-75.273 1807 1807 0 0 0-55.881.056c1.212 20.29.222 54 .362 75.666l-62.194-.168c-.659-85.657 1.522-177.594-.74-262.492m62.397 50.037c-.137 29.156-.61 58.959-.309 88.045 23.19-.717 64.681 2.515 83.774-5.62 22.662-12.914 30.59-38.641 17.668-61.812-14.64-26.248-57.118-21.161-83.573-20.922z" style="fill:#8041de;fill-opacity:1;stroke-width:1.40513"/><path fill="#8041de" d="M2765.948 172.903c45.02 1.166 133.768-6.169 171.903 8.01 22.636 8.416 42.786 24.055 52.762 46.537 10.243 23.058 10.454 53.156.942 76.481-8.375 20.515-25.728 36.196-46.032 44.669a3274 3274 0 0 0 60.055 88.523c-6.352-.773-15.57-.604-22.187-.689h-46.79c-13.546-16.06-38.796-56.963-51.176-75.947a3090 3090 0 0 0-57.062-.14c-.056 25.222.028 50.444.267 75.68l-62.106.084c-1.265-28.735-.408-62.036-.338-91.29.24-57.316.155-114.617-.238-171.918m62.387 138.967 1.672-.169c26.459-2.36 70.987 4.876 91.797-11.536 8.979-9.61 13.84-19.334 13.461-32.669-1.616-58.299-70.65-41.69-106.958-44.795 0 29.465-.337 59.774.028 89.169zM2597.923 172.815c5.283.014 13.152.83 18.632 1.223 11.971 22.13 27.68 59.9 38.81 83.886a18845 18845 0 0 0 83.59 178.17c-21.836.435-44.669 0-66.589-.113-8.796-17.353-17.437-37.924-25.11-55.825l-73.53.042-53.057.168c-6.843 18.21-15.147 37.32-22.65 55.306-20.853-.337-42.885.169-63.737.66 8.163-21.147 20.009-46.298 29.31-67.249a10146 10146 0 0 1 56.95-126.11c7.602-16.524 23.241-56.542 30.941-69.652 15.063-.604 31.278-.408 46.44-.506m-56.486 159.201 46.622.056 38.163.014c-5.747-12.238-39.737-92.85-43.025-95.9-13.068 29.887-27.92 67.137-41.76 95.83" style="stroke-width:1.40513"/><path fill="#3464dc" d="M1943.275 173.61c20.795-.605 44.05-.071 65.029-.057a7617 7617 0 0 0 122.485 262.169c-18.07-1.448-47.69-.31-67.264-.492-8.374-16.3-17.536-38.051-24.449-55.039l-25.826-.098c-32.908.505-66.744-.324-99.947 0-6.674 12.337-17.704 41.324-23.494 55.376-21.16.238-42.547.66-63.666.014 13.869-34.932 33.71-76.889 49.475-111.413a7209 7209 0 0 0 67.657-150.46m-10.413 158.596 40.876.042 44.837.014a1459 1459 0 0 1-28.327-64.467c-3.864-9.19-10.342-26.276-14.53-34.552-13.46 30.73-28.776 69.582-42.855 98.963" style="fill:#8041de;fill-opacity:1;stroke-width:1.40513"/><path fill="#3464dc" d="M907.535 172.864c3.467 4.103 1.94 41.915 1.882 50.529-42.302-2.29-100.117-.548-143.492-.52l-.082 55.685c40.087-.548 86.515-.885 126.345.183l.017 47.774-126.404.028c.374 19.573.394 39.16.062 58.748l127.445.183 21.406.126.22 50.683-210.896-.126c1.021-27.358 0-60.21-.021-88.017l-.065-174.798zM1304.873 170.8c10.66-.14 21.322-.183 31.984-.112 1.595 36.252-.032 74.991.214 112.157-1.349 46.27-2.74 102.686 60.519 102.883 67.641.225 59.09-67.98 58.962-113.857l-.24-100.214c16.1-.857 45.606-1.32 61.194.21l-.096 76.257c.212 50.023 8.234 111.904-25.007 152.765-38.918 47.83-135.721 48.66-180.455 10.286a96.65 96.65 0 0 1-28.122-40.763c-15.737-44.865-5.092-145.318-9.192-198.938z" style="stroke-width:1.40513"/></svg>